<?xml version="1.0" encoding="UTF-8"?>
<svg version="1.1" xmlns="http://www.w3.org/2000/svg" width="500" height="500">
<path d="M0 0 C1.17108559 -0.00065712 1.17108559 -0.00065712 2.36582947 -0.00132751 C4.94702135 0.00076293 7.52756413 0.02410557 10.10864258 0.04760742 C11.89797104 0.05320248 13.6873041 0.057473 15.47663879 0.06047058 C20.18676435 0.07192649 24.89661249 0.10140006 29.60662842 0.13458252 C34.41260017 0.16526734 39.21861673 0.17897252 44.0246582 0.1940918 C53.45511864 0.22626907 62.88537317 0.27747443 72.31567383 0.34057617 C73.31567383 2.34057617 73.31567383 2.34057617 72.69824219 4.2890625 C72.35414307 5.07563232 72.01004395 5.86220215 71.65551758 6.67260742 C71.08220703 7.99615234 71.08220703 7.99615234 70.49731445 9.34643555 C70.08674805 10.27262695 69.67618164 11.19881836 69.25317383 12.15307617 C68.86967773 13.03672852 68.48618164 13.92038086 68.09106445 14.83081055 C65.92337446 19.79828465 63.6759763 24.72318502 61.38208008 29.63354492 C58.1457757 36.6172035 55.21811196 43.71297419 52.31567383 50.84057617 C49.01307041 58.95087571 45.6038309 66.97120472 41.89672852 74.9050293 C38.78715538 81.66196463 35.88068215 88.50860564 32.94067383 95.34057617 C32.24561944 96.95222467 31.55038458 98.56379534 30.85498047 100.17529297 C29.40805928 103.52874561 27.96191153 106.88253011 26.51635742 110.23657227 C23.27508258 117.75579044 20.02588184 125.2715813 16.77606201 132.78710938 C15.78639648 135.07623131 14.79731847 137.36560631 13.80834961 139.6550293 C10.73382304 146.77009954 7.65093478 153.88148093 4.55004883 160.98510742 C4.27152573 161.62446732 3.99300262 162.26382721 3.70603943 162.92256165 C1.47851488 168.01686018 -0.85104531 173.05634518 -3.22729492 178.08276367 C-4.74679311 181.48024756 -6.12402296 184.9144629 -7.49511719 188.3737793 C-9.67607534 193.81475722 -11.94595569 199.21898217 -14.21069336 204.62548828 C-15.053141 206.63829831 -15.89219745 208.65250052 -16.73120117 210.66674805 C-19.75699748 217.90672357 -22.90892454 225.06357578 -26.22827148 232.17529297 C-28.72289096 237.59828786 -31.04000584 243.09610205 -33.37182617 248.59057617 C-34.42417959 251.05977427 -35.4771678 253.52868052 -36.53198242 255.99682617 C-36.79585754 256.61426697 -37.05973267 257.23170776 -37.331604 257.86785889 C-39.94212791 263.96376005 -42.6226228 270.02797579 -45.30932617 276.09057617 C-49.43074381 285.39671646 -53.38306195 294.76357139 -57.26904297 304.17016602 C-59.29750346 309.06493821 -61.36085022 313.92230715 -63.62182617 318.71557617 C-65.65733424 323.06092695 -67.58711172 327.43061083 -69.42260742 331.86401367 C-69.91704346 333.04817871 -70.41147949 334.23234375 -70.92089844 335.45239258 C-71.92071814 337.85589526 -72.91480969 340.2617897 -73.90283203 342.67016602 C-74.59131226 344.32459717 -74.59131226 344.32459717 -75.29370117 346.01245117 C-75.70587891 347.01373047 -76.11805664 348.01500977 -76.54272461 349.04663086 C-77.68432617 351.34057617 -77.68432617 351.34057617 -79.68432617 352.34057617 C-82.18669533 352.43346299 -84.66095303 352.46640029 -87.16333008 352.45410156 C-87.93415421 352.45424759 -88.70497833 352.45439362 -89.49916077 352.45454407 C-92.05309846 352.45384607 -94.60696368 352.44605893 -97.16088867 352.43823242 C-98.92922933 352.43636784 -100.69757051 352.43494413 -102.46591187 352.4339447 C-107.12497376 352.43012267 -111.78400459 352.42029505 -116.4430542 352.40924072 C-121.19534891 352.39901986 -125.94764864 352.39444563 -130.69995117 352.3894043 C-140.02808984 352.37867252 -149.35620542 352.36159984 -158.68432617 352.34057617 C-159.68432617 350.34057617 -159.68432617 350.34057617 -158.97509766 348.11669922 C-158.589104 347.2044458 -158.20311035 346.29219238 -157.80541992 345.35229492 C-157.38204346 344.34312012 -156.95866699 343.33394531 -156.52246094 342.29418945 C-155.82914673 340.67746338 -155.82914673 340.67746338 -155.12182617 339.02807617 C-154.65510498 337.92447754 -154.18838379 336.82087891 -153.70751953 335.68383789 C-151.04242222 329.41329291 -148.27579642 323.20543381 -145.36791992 317.04370117 C-140.02887057 305.49212451 -135.31128719 293.6323637 -130.40698242 281.89135742 C-124.86364166 268.63605223 -124.86364166 268.63605223 -121.80932617 262.15307617 C-118.59873039 255.30150985 -115.73790537 248.31433497 -112.84887695 241.32226562 C-109.11519801 232.31285568 -105.24544531 223.36598905 -101.35003662 214.42584229 C-97.13762071 204.75319617 -93.03800769 195.03837408 -89.01171875 185.28662109 C-86.48055242 179.17963851 -83.80323262 173.18028029 -80.97729492 167.20385742 C-79.13462978 163.12327269 -77.59690158 158.94080623 -76.02539062 154.75 C-74.78616311 151.59947893 -73.43320545 148.55772582 -71.98901367 145.49682617 C-68.27286101 137.5112925 -64.79035988 129.43076227 -61.30932617 121.34057617 C-60.61205418 119.72307711 -59.91462241 118.10564691 -59.21704102 116.48828125 C-58.13354538 113.97610429 -57.05017577 111.46387383 -55.96743774 108.95137024 C-53.46439847 103.14402769 -50.95202441 97.3407957 -48.43432617 91.53979492 C-42.1409624 77.03325463 -35.88121806 62.52050721 -29.84692383 47.90380859 C-27.47954378 42.18729101 -24.97831257 36.56202607 -22.32104492 30.97338867 C-20.88259839 27.78065532 -19.53126307 24.57268466 -18.20385742 21.33276367 C-17.53580078 19.70371094 -17.53580078 19.70371094 -16.85424805 18.04174805 C-15.9621058 15.85567864 -15.07648458 13.66693452 -14.19799805 11.4753418 C-13.78743164 10.46922852 -13.37686523 9.46311523 -12.95385742 8.42651367 C-12.58881104 7.51949707 -12.22376465 6.61248047 -11.84765625 5.67797852 C-9.03953646 0.03580876 -5.99923871 -0.08776496 0 0 Z " fill="#FEFEFE" transform="translate(368.684326171875,24.659423828125)"/>
<path d="M0 0 C11.16115522 -0.06944066 22.32225925 -0.12278107 33.48358631 -0.15543652 C38.66597422 -0.17110769 43.84821459 -0.19237248 49.03051758 -0.22631836 C54.02959841 -0.25886 59.02853713 -0.27684207 64.02771568 -0.28463173 C65.93715338 -0.29018459 67.8465831 -0.30102768 69.75596046 -0.31719017 C72.42577692 -0.33889546 75.09500242 -0.34196984 77.76489258 -0.34057617 C78.95495911 -0.35675491 78.95495911 -0.35675491 80.16906738 -0.3732605 C85.51830414 -0.34294723 85.51830414 -0.34294723 87.93943787 1.38079834 C89.32362755 3.49409484 90.36882079 5.62065793 91.390625 7.93359375 C91.84542236 8.95727051 92.30021973 9.98094727 92.76879883 11.03564453 C93.50199341 12.71956299 93.50199341 12.71956299 94.25 14.4375 C94.76651123 15.6116748 95.28302246 16.78584961 95.81518555 17.99560547 C101.53953782 31.05943991 107.00321328 44.23556847 112.45703125 57.4140625 C112.75068573 58.12359573 113.04434021 58.83312897 113.34689331 59.56416321 C114.83928086 63.17520854 116.32303198 66.78952971 117.79443359 70.40917969 C120.87000432 77.95999435 124.06876463 85.40803494 127.53076172 92.79248047 C130.2111662 98.6441179 132.62425181 104.60688215 135.0625 110.5625 C135.57070218 111.79893558 136.07916531 113.03526394 136.58789062 114.27148438 C137.58581568 116.69722975 138.58346061 119.12309038 139.58081055 121.54907227 C140.04914307 122.68787842 140.51747559 123.82668457 141 125 C141.42514893 126.03503662 141.85029785 127.07007324 142.28833008 128.13647461 C145.24820326 135.29832628 148.38133062 142.37164868 151.5625 149.4375 C156.46599459 160.39447451 161.13065425 171.4291558 165.68945312 182.53344727 C169.42855433 191.64038731 173.26078126 200.70285545 177.16015625 209.7421875 C177.62446045 210.83225098 177.62446045 210.83225098 178.09814453 211.94433594 C178.68363974 213.2788973 179.29789786 214.601338 179.94482422 215.90722656 C181.99022381 220.14140029 182.06104908 222.47457858 181 227 C180.17105204 229.01836678 179.26966823 231.00793686 178.3125 232.96875 C174.94646082 240.04626913 171.95511292 247.24304302 169 254.5 C165.68666841 262.63664503 162.25631742 270.67462275 158.53564453 278.63330078 C155.36791692 285.57812809 152.51019319 292.65866068 149.60180664 299.71508789 C146.33863488 307.62137966 142.98571702 315.42231396 139 323 C136.0887869 320.49414569 134.82943817 317.81972488 133.29296875 314.328125 C132.79168457 313.19584473 132.29040039 312.06356445 131.77392578 310.89697266 C131.25040527 309.69347168 130.72688477 308.4899707 130.1875 307.25 C129.64340259 306.01205922 129.09896802 304.77426657 128.55419922 303.53662109 C125.30626501 296.13146304 122.20968232 288.68489216 119.26953125 281.15234375 C118.04420362 278.10976099 116.71102914 275.15395759 115.3125 272.1875 C109.35424218 259.50469923 104.12257138 246.47828892 98.72265625 233.55078125 C94.59807975 223.68142718 94.59807975 223.68142718 90.1875 213.9375 C84.28025773 201.33431009 79.08647109 188.39186409 73.72265625 175.55078125 C69.56918081 165.6178843 69.56918081 165.6178843 65.125 155.8125 C61.73327221 148.59230139 58.72155478 141.21643272 55.68994141 133.83911133 C53.33591239 128.12855031 50.87826705 122.48491852 48.30151367 116.87158203 C45.84492132 111.4515034 43.52438871 105.97248478 41.1875 100.5 C40.65745438 99.26160952 40.12734289 98.02324723 39.59716797 96.78491211 C36.57635196 89.72324407 33.58753116 82.64879233 30.625 75.5625 C28.0516371 69.40750512 25.33154195 63.34442269 22.49609375 57.3046875 C20.40586804 52.68763541 18.51314443 47.99628145 16.60742188 43.30078125 C14.82606951 38.9358781 12.94530664 34.64224441 10.9375 30.375 C8.16299181 24.47731547 5.75223938 18.48304082 3.39453125 12.41015625 C2.05660706 8.97250192 2.05660706 8.97250192 0.26171875 5.74609375 C-1 3 -1 3 0 0 Z " fill="#FEFEFE" transform="translate(59,25)"/>
<path d="M0 0 C6.67197765 5.31863533 11.94179371 13.07220227 13.33203125 21.5390625 C14.32984533 33.32657281 12.84269828 41.68601399 5.6328125 51.21875 C-0.72895816 58.75458134 -9.35984396 63.34134686 -19.1875 64.375 C-29.86846097 64.5159511 -38.90487987 61.20422255 -47.14453125 54.4375 C-54.44100874 47.07126651 -58.0270197 37.60197195 -58.1875 27.375 C-57.5373032 17.36196931 -53.74939292 8.30345035 -46.3125 1.4375 C-32.51575405 -9.58403843 -14.50450695 -9.72492656 0 0 Z " fill="#FEFF00" transform="translate(272.1875,411.625)"/>
</svg>
