<?xml version="1.0" encoding="UTF-8"?>
<svg version="1.1" xmlns="http://www.w3.org/2000/svg" width="500" height="500">
<path d="M0 0 C26.73 0 53.46 0 81 0 C81.33 0.66 81.66 1.32 82 2 C81.10717773 4.4675293 81.10717773 4.4675293 79.68359375 7.57421875 C79.16941895 8.70972168 78.65524414 9.84522461 78.12548828 11.01513672 C77.71172943 11.9151944 77.71172943 11.9151944 77.28961182 12.83343506 C75.87125531 15.91956181 74.4772863 19.0166583 73.08203125 22.11328125 C72.54400879 23.30646973 72.00598633 24.4996582 71.45166016 25.72900391 C69.24070618 30.7109012 67.2540679 35.7623317 65.2734375 40.83984375 C64.02904136 43.92793111 62.67086233 46.92699888 61.25 49.9375 C58.2965447 56.20970639 55.64579075 62.59262332 53 69 C50.02019572 76.21325322 46.96320394 83.35050076 43.625 90.40625 C41.29698863 95.55473669 39.15728463 100.7781022 37 106 C34.02006304 113.21320035 30.96320696 120.35049437 27.625 127.40625 C24.85442197 133.53348987 22.32502499 139.76363704 19.77734375 145.98632812 C17.6686133 151.10898361 15.48160365 156.17413944 13.140625 161.1953125 C9.84248991 168.27387701 6.76745979 175.43884468 3.7088623 182.62310791 C2.06006836 186.4953073 0.40457307 190.36464237 -1.25 194.234375 C-1.57575012 194.99666412 -1.90150024 195.75895325 -2.23712158 196.54434204 C-8.17047885 210.42391125 -14.22500017 224.24997809 -20.3125 238.0625 C-29.57083389 259.08177524 -38.72043579 280.14039373 -47.51123047 301.35986328 C-50.36918194 308.22907161 -53.36489584 315.00630779 -56.51147461 321.74780273 C-59.61318638 328.52456221 -62.42662518 335.4268219 -65.29492188 342.3046875 C-65.76091797 343.41585938 -66.22691406 344.52703125 -66.70703125 345.671875 C-67.1244458 346.6731543 -67.54186035 347.67443359 -67.97192383 348.70605469 C-69 351 -69 351 -70 352 C-72.49492388 352.09502416 -74.96206014 352.12557566 -77.45727539 352.11352539 C-78.23770706 352.11367142 -79.01813873 352.11381744 -79.82221985 352.1139679 C-82.4140598 352.11326858 -85.00582878 352.10547536 -87.59765625 352.09765625 C-89.3898464 352.09579213 -91.18203706 352.0943682 -92.97422791 352.09336853 C-97.70070797 352.08954284 -102.42715752 352.07971212 -107.15362549 352.06866455 C-111.9728555 352.05845153 -116.79209042 352.05387115 -121.61132812 352.04882812 C-131.07423219 352.03808989 -140.53711356 352.02101286 -150 352 C-151 350 -151 350 -150.31005859 347.86230469 C-149.92672363 346.97446289 -149.54338867 346.08662109 -149.1484375 345.171875 C-148.7162793 344.16068604 -148.28412109 343.14949707 -147.83886719 342.10766602 C-147.11425293 340.44562134 -147.11425293 340.44562134 -146.375 338.75 C-145.87645508 337.58976318 -145.37791016 336.42952637 -144.86425781 335.23413086 C-143.52137685 332.11399314 -142.17164988 328.99702709 -140.81750488 325.8817749 C-139.50765906 322.86670424 -138.20348592 319.84918087 -136.8984375 316.83203125 C-135.3084816 313.1591561 -133.71753502 309.48672142 -132.12280273 305.81591797 C-126.27348206 292.34986219 -120.49654039 278.85297791 -114.72122192 265.35505676 C-112.69491633 260.62019492 -110.66354613 255.88753581 -108.62890625 251.15625 C-104.10725476 240.637374 -99.60625033 230.11599314 -95.29003906 219.51098633 C-93.70680708 215.64447028 -92.02937157 211.84240798 -90.25 208.0625 C-85.64091901 198.24047447 -81.54055188 188.19086209 -77.33984375 178.18945312 C-76.12482617 175.29714451 -74.90699711 172.4060471 -73.6875 169.515625 C-70.93832836 162.99763292 -68.19480325 156.47819796 -65.5 149.9375 C-62.78993385 143.41697171 -59.89702607 136.97905648 -57.01953125 130.53125 C-47.20336099 108.53123632 -37.75129584 86.36602713 -28.18951416 64.2545166 C-27.1875104 61.93752406 -26.18531725 59.6206135 -25.18310547 57.30371094 C-22.00234607 49.94953163 -18.82406759 42.59430262 -15.65312195 35.23588562 C-14.18552804 31.8306358 -12.71667365 28.42593038 -11.24771118 25.02127075 C-10.54751322 23.39741854 -9.84793642 21.77329832 -9.14901733 20.14889526 C-8.17772766 17.89155617 -7.20431668 15.63514261 -6.23046875 13.37890625 C-5.94679443 12.71807037 -5.66312012 12.0572345 -5.37084961 11.37637329 C-3.69684089 7.50478958 -1.89091055 3.78182109 0 0 Z " fill="#111111" transform="translate(360,25)"/>
<path d="M0 0 C0.80991898 0.00359528 1.61983795 0.00719055 2.45429993 0.01089478 C3.30300659 0.01074875 4.15171326 0.01060272 5.02613831 0.01045227 C7.84523532 0.01115168 10.66426712 0.01894539 13.48335266 0.02676392 C15.43248458 0.028628 17.38161696 0.03005195 19.33074951 0.03105164 C24.47151473 0.03487761 29.61225188 0.04470858 34.75300598 0.05575562 C39.99449789 0.06596802 45.23599431 0.07054889 50.47749329 0.07559204 C60.76982335 0.08633078 71.06213255 0.10340815 81.35444641 0.12442017 C88.75787132 14.76821201 88.75787132 14.76821201 91.82710266 21.95254517 C92.11226746 22.61763092 92.39743225 23.28271667 92.6912384 23.96795654 C93.60429438 26.10156206 94.51084762 28.23785198 95.41694641 30.37442017 C96.0645045 31.89222377 96.71221271 33.40996334 97.36006165 34.92764282 C102.55610714 47.12797009 107.62202773 59.3818032 112.61054993 71.66836548 C115.52295835 78.82148074 118.59030442 85.87215997 121.86543274 92.86856079 C124.54959426 98.73771606 126.97205842 104.71508408 129.41694641 110.68692017 C129.92514859 111.92335575 130.43361172 113.15968411 130.94233704 114.39590454 C131.93785222 116.81579202 132.93289877 119.23587235 133.92744446 121.65615845 C137.16402779 129.52252334 140.41771988 137.37098713 143.91694641 145.12442017 C152.9589223 165.33044582 161.58121958 185.7397551 170.10005188 206.17129517 C170.97693345 208.23567031 171.88487505 210.28700349 172.81587219 212.32754517 C173.51752502 213.89762329 173.51752502 213.89762329 174.23335266 215.49942017 C174.66333557 216.43527954 175.09331848 217.37113892 175.53633118 218.33535767 C177.15272045 223.84584141 175.0904764 228.13186067 172.67085266 233.09707642 C169.60996736 239.5350504 166.81723649 246.05368842 164.08918762 252.63864136 C159.35833425 264.05143577 154.53186971 275.42018186 149.60444641 286.74942017 C149.33483093 287.36938873 149.06521545 287.9893573 148.78742981 288.62811279 C147.47424723 291.64717443 146.16071131 294.66608227 144.84712219 297.68496704 C141.31762839 305.81769662 137.83698552 313.97149915 134.35444641 322.12442017 C133.36444641 322.12442017 132.37444641 322.12442017 131.35444641 322.12442017 C125.96631164 310.35902444 120.81324921 298.52192702 115.87641907 286.55996704 C113.38388437 280.53901382 110.76657744 274.60915166 107.97944641 268.71817017 C105.20886838 262.5909303 102.6794714 256.36078313 100.13179016 250.13809204 C98.00150886 244.96308394 95.78693325 239.85083732 93.41694641 234.78067017 C89.61223458 226.61659542 86.25061002 218.28088444 82.85444641 209.94082642 C79.99472365 202.962805 76.98522306 196.09063571 73.79194641 189.25918579 C71.5050624 184.27216292 69.43288591 179.20099205 67.35444641 174.12442017 C63.51000774 164.80651705 63.51000774 164.80651705 59.35444641 155.62442017 C55.98468999 148.50198046 53.0401232 141.20548321 50.03291321 133.92495728 C47.42154344 127.62381234 44.69505314 121.41961918 41.78022766 115.25332642 C40.03245548 111.41780446 38.44056011 107.52896421 36.85444641 103.62442017 C34.87598853 98.75601394 32.84905504 93.94058843 30.60444641 89.18692017 C27.01806609 81.55387542 23.79990883 73.7675816 20.53218079 65.99404907 C17.48524609 58.75913373 14.35649939 51.5693861 11.13667297 44.4100647 C8.58862103 38.71836352 6.21039999 32.96622666 3.86836243 27.18716431 C2.04888242 22.72536875 0.09878011 18.35711868 -1.95805359 13.99942017 C-3.96199762 9.74037111 -5.57992284 5.70663237 -6.64555359 1.12442017 C-4.8456696 -0.67546382 -2.39555483 0.00449012 0 0 Z " fill="#111111" transform="translate(64.64555358886719,24.875579833984375)"/>
<path d="M0 0 C7.14854263 5.97288439 11.59628332 12.72356054 13.81640625 21.7890625 C14.86417158 34.10030511 12.36594309 43.82326677 4.37890625 53.4140625 C-2.97935979 61.31738528 -11.17720275 64.0509234 -21.68359375 65.1015625 C-32.26111903 64.76308169 -41.17382543 60.31179239 -48.609375 53.1015625 C-55.53895653 45.67332622 -58.25826653 36.86854943 -58.0859375 26.796875 C-57.29658342 16.06975543 -51.94961849 6.75679779 -43.93359375 -0.2734375 C-29.78264508 -9.15027932 -13.85714487 -10.06440217 0 0 Z " fill="#0079CC" transform="translate(271.93359375,411.2734375)"/>
<path d="M0 0 C0.625 1.8125 0.625 1.8125 1 4 C0.34 4.99 -0.32 5.98 -1 7 C-3.60287362 7.2864952 -5.96705374 7.37848245 -8.57080078 7.34057617 C-9.35137848 7.34101425 -10.13195618 7.34145233 -10.93618774 7.34190369 C-13.52281489 7.33980941 -16.10879824 7.31644883 -18.6953125 7.29296875 C-20.48607021 7.28737506 -22.2768325 7.28310389 -24.06759644 7.28010559 C-28.78595608 7.26863895 -33.50403964 7.23915625 -38.22229004 7.20599365 C-43.03487411 7.17533187 -47.8475027 7.1616086 -52.66015625 7.14648438 C-62.10689228 7.11428819 -71.5534232 7.06306998 -81 7 C-81.33 6.34 -81.66 5.68 -82 5 C-55.6 4.67 -29.2 4.34 -2 4 C-1.34 2.68 -0.68 1.36 0 0 Z " fill="#010101" transform="translate(291,370)"/>
<path d="M0 0 C39.6 0.495 39.6 0.495 80 1 C80 1.33 80 1.66 80 2 C53.6 2.33 27.2 2.66 0 3 C0 2.01 0 1.02 0 0 Z " fill="#070707" transform="translate(360,25)"/>
</svg>
